<svg xmlns:xlink="http://www.w3.org/1999/xlink" version="1.1" class="highcharts-root" style="font-family:&quot;Lucida Grande&quot;, &quot;Lucida Sans Unicode&quot;, Arial, Helvetica, sans-serif;font-size:12px;" xmlns="http://www.w3.org/2000/svg" width="960" height="540" viewBox="0 0 960 540"><desc>Created with Highcharts 7.0.2</desc><defs><clipPath id="highcharts-phnt591-870"><rect x="0" y="0" width="940" height="405" fill="none"></rect></clipPath></defs><rect fill="#ffffff" class="highcharts-background" x="0" y="0" width="960" height="540" rx="0" ry="0"></rect><rect fill="none" class="highcharts-plot-background" x="10" y="41" width="940" height="405"></rect><g class="highcharts-pane-group" data-z-index="0"></g><rect fill="none" class="highcharts-plot-border" data-z-index="1" x="10" y="41" width="940" height="405"></rect><g class="highcharts-series-group" data-z-index="3"><g data-z-index="0.1" class="highcharts-series highcharts-series-0 highcharts-pie-series " transform="translate(10,41) scale(1 1)"><path fill="#7cb5ec" d="M 469.9607929082887 10.50000399271704 A 192.5 192.5 0 1 1 450.36002647645364 394.4954867353129 L 458.2160158858722 317.8972920411877 A 115.5 115.5 0 1 0 469.9764757449732 87.50000239563022 Z" transform="translate(0,0)" stroke="#ffffff" stroke-width="1" stroke-dasharray="none" stroke-linejoin="round" class="highcharts-point highcharts-color-0"></path><path fill="#90ed7d" d="M 450.1685408416202 394.4757510173273 A 192.5 192.5 0 0 1 288.10045004474097 140.0015577488282 L 360.8602700268446 165.20093464929693 A 115.5 115.5 0 0 0 458.1011245049721 317.8854506103964 Z" transform="translate(0,0)" stroke="#ffffff" stroke-width="1" stroke-dasharray="none" stroke-linejoin="round" class="highcharts-point highcharts-color-1"></path><path fill="#f7a35c" d="M 288.16353942625983 139.81968972840804 A 192.5 192.5 0 0 1 328.54875313638144 72.4327959986596 L 385.12925188182885 124.65967759919577 A 115.5 115.5 0 0 0 360.89812365575585 165.0918138370448 Z" transform="translate(0,0)" stroke="#ffffff" stroke-width="1" stroke-dasharray="none" stroke-linejoin="round" class="highcharts-point highcharts-color-2"></path><path fill="#434348" d="M 328.6793910442391 72.29141005896776 A 192.5 192.5 0 0 1 347.8546543187667 54.21571141947811 L 396.71279259126004 113.72942685168687 A 115.5 115.5 0 0 0 385.2076346265435 124.57484603538066 Z" transform="translate(0,0)" stroke="#ffffff" stroke-width="1" stroke-dasharray="none" stroke-linejoin="round" class="highcharts-point highcharts-color-3"></path><path fill="#8085e9" d="M 348.00349965521764 54.093640486292486 A 192.5 192.5 0 0 1 369.31888009600914 38.92818007080493 L 409.59132805760544 104.55690804248296 A 115.5 115.5 0 0 0 396.8020997931306 113.65618429177549 Z" transform="translate(0,0)" stroke="#ffffff" stroke-width="1" stroke-dasharray="none" stroke-linejoin="round" class="highcharts-point highcharts-color-4"></path><path fill="#f15c80" d="M 369.48300222914884 38.827581003584214 A 192.5 192.5 0 0 1 386.7220034550725 29.445900966116483 L 420.0332020730435 98.86754057966989 A 115.5 115.5 0 0 0 409.6898013374893 104.49654860215054 Z" transform="translate(0,0)" stroke="#ffffff" stroke-width="1" stroke-dasharray="none" stroke-linejoin="round" class="highcharts-point highcharts-color-5"></path><path fill="#e4d354" d="M 386.8955991641756 29.362709760493487 A 192.5 192.5 0 0 1 395.85531645514084 25.351988747318956 L 425.51318987308446 96.41119324839138 A 115.5 115.5 0 0 0 420.13735949850536 98.81762585629609 Z" transform="translate(0,0)" stroke="#ffffff" stroke-width="1" stroke-dasharray="none" stroke-linejoin="round" class="highcharts-point highcharts-color-6"></path><path fill="#2b908f" d="M 396.03300150912423 25.27793290012977 A 192.5 192.5 0 0 1 405.007842271323 21.803230068053466 L 431.0047053627938 94.28193804083207 A 115.5 115.5 0 0 0 425.61980090547456 96.36675974007785 Z" transform="translate(0,0)" stroke="#ffffff" stroke-width="1" stroke-dasharray="none" stroke-linejoin="round" class="highcharts-point highcharts-color-7"></path><path fill="#f45b5b" d="M 405.1890715071317 21.738328519534207 A 192.5 192.5 0 0 1 414.51367819507027 18.670083566015307 L 436.70820691704216 92.40205013960919 A 115.5 115.5 0 0 0 431.113442904279 94.24299711172053 Z" transform="translate(0,0)" stroke="#ffffff" stroke-width="1" stroke-dasharray="none" stroke-linejoin="round" class="highcharts-point highcharts-color-8"></path><path fill="#91e8e1" d="M 414.69803582394127 18.614689418408602 A 192.5 192.5 0 0 1 420.811755944384 16.89044450451999 L 440.48705356663044 91.33426670271199 A 115.5 115.5 0 0 0 436.8188214943648 92.36881365104517 Z" transform="translate(0,0)" stroke="#ffffff" stroke-width="1" stroke-dasharray="none" stroke-linejoin="round" class="highcharts-point highcharts-color-9"></path><path fill="#7cb5ec" d="M 420.9978900629813 16.841349323432382 A 192.5 192.5 0 0 1 427.1666898263687 15.325927364567775 L 444.3000138958212 90.39555641874067 A 115.5 115.5 0 0 0 440.5987340377888 91.30480959405942 Z" transform="translate(0,0)" stroke="#ffffff" stroke-width="1" stroke-dasharray="none" stroke-linejoin="round" class="highcharts-point highcharts-color-0"></path><path fill="#90ed7d" d="M 427.3543852843785 15.283187898561522 A 192.5 192.5 0 0 1 433.7601740874974 13.94200620489093 L 448.25610445249845 89.56520372293456 A 115.5 115.5 0 0 0 444.4126311706271 90.36991273913691 Z" transform="translate(0,0)" stroke="#ffffff" stroke-width="1" stroke-dasharray="none" stroke-linejoin="round" class="highcharts-point highcharts-color-1"></path><path fill="#f7a35c" d="M 433.9492501696944 13.905860914007377 A 192.5 192.5 0 0 1 436.9792417059935 13.353277060507054 L 450.1875450235961 89.21196623630424 A 115.5 115.5 0 0 0 448.3695501018166 89.54351654840443 Z" transform="translate(0,0)" stroke="#ffffff" stroke-width="1" stroke-dasharray="none" stroke-linejoin="round" class="highcharts-point highcharts-color-2"></path><path fill="#434348" d="M 437.168904907703 13.320351131070083 A 192.5 192.5 0 0 1 440.20785209381137 12.81935449910847 L 452.1247112562868 88.89161269946507 A 115.5 115.5 0 0 0 450.3013429446218 89.19221067864204 Z" transform="translate(0,0)" stroke="#ffffff" stroke-width="1" stroke-dasharray="none" stroke-linejoin="round" class="highcharts-point highcharts-color-3"></path><path fill="#8085e9" d="M 440.39804760368827 12.789657446482437 A 192.5 192.5 0 0 1 443.44507220502044 12.340392820599192 L 454.0670433230123 88.60423569235952 A 115.5 115.5 0 0 0 452.2388285622129 88.87379446788947 Z" transform="translate(0,0)" stroke="#ffffff" stroke-width="1" stroke-dasharray="none" stroke-linejoin="round" class="highcharts-point highcharts-color-4"></path><path fill="#f15c80" d="M 443.6357450578861 12.313933227025672 A 192.5 192.5 0 0 1 446.68996650553936 11.916530441570842 L 456.0139799033236 88.3499182649425 A 115.5 115.5 0 0 0 454.18144703473166 88.5883599362154 Z" transform="translate(0,0)" stroke="#ffffff" stroke-width="1" stroke-dasharray="none" stroke-linejoin="round" class="highcharts-point highcharts-color-5"></path><path fill="#e4d354" d="M 446.8810615982664 11.893315953688187 A 192.5 192.5 0 0 1 449.94159724350015 11.547889855300781 L 457.9649583461001 88.12873391318047 A 115.5 115.5 0 0 0 456.1286369589598 88.33598957221291 Z" transform="translate(0,0)" stroke="#ffffff" stroke-width="1" stroke-dasharray="none" stroke-linejoin="round" class="highcharts-point highcharts-color-6"></path><path fill="#2b908f" d="M 450.1330593509368 11.527927181934444 A 192.5 192.5 0 0 1 453.3907985111804 11.217872506576384 L 460.0344791067082 87.93072350394583 A 115.5 115.5 0 0 0 458.0798356105621 88.11675630916066 Z" transform="translate(0,0)" stroke="#ffffff" stroke-width="1" stroke-dasharray="none" stroke-linejoin="round" class="highcharts-point highcharts-color-7"></path><path fill="#f45b5b" d="M 453.5825889113102 11.201359198911518 A 192.5 192.5 0 0 1 456.65333761505406 10.963241531257182 L 461.9920025690324 87.7779449187543 A 115.5 115.5 0 0 0 460.14955334678615 87.9208155193469 Z" transform="translate(0,0)" stroke="#ffffff" stroke-width="1" stroke-dasharray="none" stroke-linejoin="round" class="highcharts-point highcharts-color-8"></path><path fill="#91e8e1" d="M 456.84538101484736 10.949990889467898 A 192.5 192.5 0 0 1 459.91973381146386 10.764107842556484 L 463.9518402868783 87.65846470553389 A 115.5 115.5 0 0 0 462.10722860890843 87.76999453368074 Z" transform="translate(0,0)" stroke="#ffffff" stroke-width="1" stroke-dasharray="none" stroke-linejoin="round" class="highcharts-point highcharts-color-9"></path><path fill="#7cb5ec" d="M 460.1119747117147 10.754123695986067 A 192.5 192.5 0 0 1 463.18904313464344 10.620528988724345 L 465.91342588078606 87.5723173932346 A 115.5 115.5 0 0 0 464.0671848270288 87.65247421759163 Z" transform="translate(0,0)" stroke="#ffffff" stroke-width="1" stroke-dasharray="none" stroke-linejoin="round" class="highcharts-point highcharts-color-0"></path><path fill="#90ed7d" d="M 463.3814259790697 10.61381422272163 A 192.5 192.5 0 0 1 466.4603207769528 10.53254646305021 L 467.8761924661717 87.51952787783011 A 115.5 115.5 0 0 0 466.02885558744185 87.56828853363297 Z" transform="translate(0,0)" stroke="#ffffff" stroke-width="1" stroke-dasharray="none" stroke-linejoin="round" class="highcharts-point highcharts-color-1"></path><path fill="#f7a35c" d="M 466.6527899682514 10.529103018135856 A 192.5 192.5 0 0 1 469.7326213619212 10.500185691871621 L 469.8395728171527 87.50011141512299 A 115.5 115.5 0 0 0 467.99167398095085 87.51746181088151 Z" transform="translate(0,0)" stroke="#ffffff" stroke-width="1" stroke-dasharray="none" stroke-linejoin="round" class="highcharts-point highcharts-color-2"></path></g><g data-z-index="0.1" class="highcharts-markers highcharts-series-0 highcharts-pie-series " transform="translate(10,41) scale(1 1)"></g></g><text x="480" text-anchor="middle" class="highcharts-title" data-z-index="4" style="color:#333333;font-size:14;font-weight:normal;fill:#333333;" y="21"><tspan>Filter Examples</tspan></text><text x="480" text-anchor="middle" class="highcharts-subtitle" data-z-index="4" style="color:#666666;fill:#666666;" y="40"></text><g class="highcharts-legend" data-z-index="7" transform="translate(22,458)"><rect fill="none" class="highcharts-legend-box" rx="0" ry="0" x="0" y="0" width="915" height="67" visibility="visible"></rect><g data-z-index="1"><g><g class="highcharts-legend-item highcharts-pie-series highcharts-color-0" data-z-index="1" transform="translate(8,3)"><text x="21" style="color:#333333;cursor:pointer;font-size:12px;font-weight:bold;fill:#333333;" text-anchor="start" data-z-index="2" y="15"><tspan>10.0.2.15</tspan></text><rect x="2" y="4" width="12" height="12" fill="#7cb5ec" rx="6" ry="6" class="highcharts-point" data-z-index="3"></rect></g><g class="highcharts-legend-item highcharts-pie-series highcharts-color-1" data-z-index="1" transform="translate(139.40625,3)"><text x="21" y="15" style="color:#333333;cursor:pointer;font-size:12px;font-weight:bold;fill:#333333;" text-anchor="start" data-z-index="2"><tspan>164.67.228.152</tspan></text><rect x="2" y="4" width="12" height="12" fill="#90ed7d" rx="6" ry="6" class="highcharts-point" data-z-index="3"></rect></g><g class="highcharts-legend-item highcharts-pie-series highcharts-color-2" data-z-index="1" transform="translate(270.8125,3)"><text x="21" y="15" style="color:#333333;cursor:pointer;font-size:12px;font-weight:bold;fill:#333333;" text-anchor="start" data-z-index="2"><tspan>52.45.22.219</tspan></text><rect x="2" y="4" width="12" height="12" fill="#f7a35c" rx="6" ry="6" class="highcharts-point" data-z-index="3"></rect></g><g class="highcharts-legend-item highcharts-pie-series highcharts-color-3" data-z-index="1" transform="translate(402.21875,3)"><text x="21" y="15" style="color:#333333;cursor:pointer;font-size:12px;font-weight:bold;fill:#333333;" text-anchor="start" data-z-index="2"><tspan>107.170.221.231</tspan></text><rect x="2" y="4" width="12" height="12" fill="#434348" rx="6" ry="6" class="highcharts-point" data-z-index="3"></rect></g><g class="highcharts-legend-item highcharts-pie-series highcharts-color-4" data-z-index="1" transform="translate(533.625,3)"><text x="21" y="15" style="color:#333333;cursor:pointer;font-size:12px;font-weight:bold;fill:#333333;" text-anchor="start" data-z-index="2"><tspan>104.17.153.222</tspan></text><rect x="2" y="4" width="12" height="12" fill="#8085e9" rx="6" ry="6" class="highcharts-point" data-z-index="3"></rect></g><g class="highcharts-legend-item highcharts-pie-series highcharts-color-5" data-z-index="1" transform="translate(665.03125,3)"><text x="21" y="15" style="color:#333333;cursor:pointer;font-size:12px;font-weight:bold;fill:#333333;" text-anchor="start" data-z-index="2"><tspan>104.28.11.53</tspan></text><rect x="2" y="4" width="12" height="12" fill="#f15c80" rx="6" ry="6" class="highcharts-point" data-z-index="3"></rect></g><g class="highcharts-legend-item highcharts-pie-series highcharts-color-6" data-z-index="1" transform="translate(796.4375,3)"><text x="21" y="15" style="color:#333333;cursor:pointer;font-size:12px;font-weight:bold;fill:#333333;" text-anchor="start" data-z-index="2"><tspan>172.217.4.206</tspan></text><rect x="2" y="4" width="12" height="12" fill="#e4d354" rx="6" ry="6" class="highcharts-point" data-z-index="3"></rect></g><g class="highcharts-legend-item highcharts-pie-series highcharts-color-7" data-z-index="1" transform="translate(8,17)"><text x="21" y="15" style="color:#333333;cursor:pointer;font-size:12px;font-weight:bold;fill:#333333;" text-anchor="start" data-z-index="2"><tspan>172.217.9.46</tspan></text><rect x="2" y="4" width="12" height="12" fill="#2b908f" rx="6" ry="6" class="highcharts-point" data-z-index="3"></rect></g><g class="highcharts-legend-item highcharts-pie-series highcharts-color-8" data-z-index="1" transform="translate(139.40625,17)"><text x="21" y="15" style="color:#333333;cursor:pointer;font-size:12px;font-weight:bold;fill:#333333;" text-anchor="start" data-z-index="2"><tspan>172.217.8.166</tspan></text><rect x="2" y="4" width="12" height="12" fill="#f45b5b" rx="6" ry="6" class="highcharts-point" data-z-index="3"></rect></g><g class="highcharts-legend-item highcharts-pie-series highcharts-color-9" data-z-index="1" transform="translate(270.8125,17)"><text x="21" y="15" style="color:#333333;cursor:pointer;font-size:12px;font-weight:bold;fill:#333333;" text-anchor="start" data-z-index="2"><tspan>157.240.18.15</tspan></text><rect x="2" y="4" width="12" height="12" fill="#91e8e1" rx="6" ry="6" class="highcharts-point" data-z-index="3"></rect></g><g class="highcharts-legend-item highcharts-pie-series highcharts-color-0" data-z-index="1" transform="translate(402.21875,17)"><text x="21" y="15" style="color:#333333;cursor:pointer;font-size:12px;font-weight:bold;fill:#333333;" text-anchor="start" data-z-index="2"><tspan>18.235.0.95</tspan></text><rect x="2" y="4" width="12" height="12" fill="#7cb5ec" rx="6" ry="6" class="highcharts-point" data-z-index="3"></rect></g><g class="highcharts-legend-item highcharts-pie-series highcharts-color-1" data-z-index="1" transform="translate(533.625,17)"><text x="21" y="15" style="color:#333333;cursor:pointer;font-size:12px;font-weight:bold;fill:#333333;" text-anchor="start" data-z-index="2"><tspan>172.217.9.38</tspan></text><rect x="2" y="4" width="12" height="12" fill="#90ed7d" rx="6" ry="6" class="highcharts-point" data-z-index="3"></rect></g><g class="highcharts-legend-item highcharts-pie-series highcharts-color-2" data-z-index="1" transform="translate(665.03125,17)"><text x="21" y="15" style="color:#333333;cursor:pointer;font-size:12px;font-weight:bold;fill:#333333;" text-anchor="start" data-z-index="2"><tspan>104.31.76.24</tspan></text><rect x="2" y="4" width="12" height="12" fill="#f7a35c" rx="6" ry="6" class="highcharts-point" data-z-index="3"></rect></g><g class="highcharts-legend-item highcharts-pie-series highcharts-color-3" data-z-index="1" transform="translate(796.4375,17)"><text x="21" y="15" style="color:#333333;cursor:pointer;font-size:12px;font-weight:bold;fill:#333333;" text-anchor="start" data-z-index="2"><tspan>104.31.77.24</tspan></text><rect x="2" y="4" width="12" height="12" fill="#434348" rx="6" ry="6" class="highcharts-point" data-z-index="3"></rect></g><g class="highcharts-legend-item highcharts-pie-series highcharts-color-4" data-z-index="1" transform="translate(8,31)"><text x="21" y="15" style="color:#333333;cursor:pointer;font-size:12px;font-weight:bold;fill:#333333;" text-anchor="start" data-z-index="2"><tspan>151.101.128.194</tspan></text><rect x="2" y="4" width="12" height="12" fill="#8085e9" rx="6" ry="6" class="highcharts-point" data-z-index="3"></rect></g><g class="highcharts-legend-item highcharts-pie-series highcharts-color-5" data-z-index="1" transform="translate(139.40625,31)"><text x="21" y="15" style="color:#333333;cursor:pointer;font-size:12px;font-weight:bold;fill:#333333;" text-anchor="start" data-z-index="2"><tspan>104.114.79.195</tspan></text><rect x="2" y="4" width="12" height="12" fill="#f15c80" rx="6" ry="6" class="highcharts-point" data-z-index="3"></rect></g><g class="highcharts-legend-item highcharts-pie-series highcharts-color-6" data-z-index="1" transform="translate(270.8125,31)"><text x="21" y="15" style="color:#333333;cursor:pointer;font-size:12px;font-weight:bold;fill:#333333;" text-anchor="start" data-z-index="2"><tspan>198.11.132.198</tspan></text><rect x="2" y="4" width="12" height="12" fill="#e4d354" rx="6" ry="6" class="highcharts-point" data-z-index="3"></rect></g><g class="highcharts-legend-item highcharts-pie-series highcharts-color-7" data-z-index="1" transform="translate(402.21875,31)"><text x="21" y="15" style="color:#333333;cursor:pointer;font-size:12px;font-weight:bold;fill:#333333;" text-anchor="start" data-z-index="2"><tspan>64.74.236.63</tspan></text><rect x="2" y="4" width="12" height="12" fill="#2b908f" rx="6" ry="6" class="highcharts-point" data-z-index="3"></rect></g><g class="highcharts-legend-item highcharts-pie-series highcharts-color-8" data-z-index="1" transform="translate(533.625,31)"><text x="21" y="15" style="color:#333333;cursor:pointer;font-size:12px;font-weight:bold;fill:#333333;" text-anchor="start" data-z-index="2"><tspan>128.97.27.37</tspan></text><rect x="2" y="4" width="12" height="12" fill="#f45b5b" rx="6" ry="6" class="highcharts-point" data-z-index="3"></rect></g><g class="highcharts-legend-item highcharts-pie-series highcharts-color-9" data-z-index="1" transform="translate(665.03125,31)"><text x="21" y="15" style="color:#333333;cursor:pointer;font-size:12px;font-weight:bold;fill:#333333;" text-anchor="start" data-z-index="2"><tspan>104.122.41.50</tspan></text><rect x="2" y="4" width="12" height="12" fill="#91e8e1" rx="6" ry="6" class="highcharts-point" data-z-index="3"></rect></g><g class="highcharts-legend-item highcharts-pie-series highcharts-color-0" data-z-index="1" transform="translate(796.4375,31)"><text x="21" y="15" style="color:#333333;cursor:pointer;font-size:12px;font-weight:bold;fill:#333333;" text-anchor="start" data-z-index="2"><tspan>13.249.94.46</tspan></text><rect x="2" y="4" width="12" height="12" fill="#7cb5ec" rx="6" ry="6" class="highcharts-point" data-z-index="3"></rect></g><g class="highcharts-legend-item highcharts-pie-series highcharts-color-1" data-z-index="1" transform="translate(8,45)"><text x="21" y="15" style="color:#333333;cursor:pointer;font-size:12px;font-weight:bold;fill:#333333;" text-anchor="start" data-z-index="2"><tspan>52.0.233.41</tspan></text><rect x="2" y="4" width="12" height="12" fill="#90ed7d" rx="6" ry="6" class="highcharts-point" data-z-index="3"></rect></g><g class="highcharts-legend-item highcharts-pie-series highcharts-color-2" data-z-index="1" transform="translate(139.40625,45)"><text x="21" y="15" style="color:#333333;cursor:pointer;font-size:12px;font-weight:bold;fill:#333333;" text-anchor="start" data-z-index="2"><tspan>172.217.4.194</tspan></text><rect x="2" y="4" width="12" height="12" fill="#f7a35c" rx="6" ry="6" class="highcharts-point" data-z-index="3"></rect></g></g></g></g></svg>